<svg width="18" height="18" viewBox="0 0 18 18" fill="none" xmlns="http://www.w3.org/2000/svg">
<g clip-path="url(#clip0)">
<path d="M12.7493 17.9922C12.8304 17.9959 12.9079 17.9995 12.9891 17.9995C13.8563 17.9995 14.5796 17.6859 15.148 17.0696C15.1516 17.0659 15.159 17.0585 15.1627 17.0548C15.3657 16.8113 15.5945 16.5899 15.838 16.3574C16.0041 16.1987 16.1739 16.0363 16.3325 15.8666C17.089 15.0768 17.0854 14.0768 16.3252 13.3166L14.2217 11.2131C13.86 10.8367 13.4283 10.6374 12.9707 10.6374C12.5168 10.6374 12.0813 10.833 11.7086 11.2057L10.465 12.4493C10.3543 12.3866 10.2399 12.3313 10.1292 12.2759C9.98892 12.2058 9.85976 12.1394 9.74536 12.0692C8.60506 11.3459 7.57178 10.4012 6.58278 9.18712C6.08459 8.55977 5.75615 8.03575 5.52366 7.49697C5.84841 7.20174 6.15102 6.89545 6.44255 6.59653C6.54957 6.48952 6.65659 6.37881 6.76729 6.2681C7.55702 5.47837 7.55702 4.50045 6.76729 3.71441L5.72294 2.67006C5.60116 2.54828 5.48307 2.4265 5.36498 2.30841C5.13249 2.07223 4.89262 1.82498 4.65275 1.60356C4.29111 1.24192 3.86303 1.05371 3.40913 1.05371C2.95891 1.05371 2.52346 1.24192 2.14704 1.60356L0.836991 2.90993C0.357252 3.38967 0.0841704 3.97273 0.0251257 4.64806C-0.0412996 5.48945 0.113693 6.3825 0.512245 7.46006C1.12852 9.12438 2.05479 10.6706 3.42758 12.3239C5.09928 14.3166 7.1068 15.8924 9.40216 17.0032C10.2768 17.4202 11.4466 17.9073 12.7493 17.9922ZM4.12504 11.7445C2.81868 10.1724 1.94408 8.71107 1.3647 7.14639C1.00674 6.18322 0.873893 5.43409 0.929248 4.72186C0.969841 4.26058 1.14698 3.87679 1.4791 3.54835L2.78178 2.24568C2.98105 2.05378 3.19878 1.95414 3.41282 1.95414C3.62316 1.95414 3.82982 2.05378 4.0291 2.24937C4.26158 2.46709 4.48669 2.69589 4.72287 2.93576C4.84096 3.05754 4.96274 3.18301 5.08821 3.30479L6.13256 4.34914C6.56064 4.77722 6.56064 5.19791 6.13256 5.62599C6.02185 5.73669 5.91115 5.8474 5.80413 5.95811C5.47938 6.28655 5.17678 6.59653 4.84096 6.89545C4.83358 6.90283 4.82989 6.90652 4.82251 6.9139C4.52359 7.21281 4.56788 7.50066 4.64168 7.71469C4.64537 7.72576 4.64906 7.73314 4.65275 7.74422C4.92215 8.39371 5.30225 9.00999 5.88531 9.74804C6.93705 11.0433 8.04414 12.0508 9.26931 12.8294C9.42062 12.9254 9.5793 13.0066 9.73429 13.0841C9.87452 13.1542 10.0037 13.2206 10.1181 13.2907C10.1328 13.2981 10.1439 13.3055 10.1587 13.3129C10.2768 13.3719 10.3912 13.4014 10.5093 13.4014C10.8008 13.4014 10.9853 13.2169 11.0443 13.1542L12.3544 11.8441C12.5537 11.6449 12.7677 11.5415 12.9781 11.5415C13.2364 11.5415 13.4467 11.7039 13.5833 11.8441L15.6941 13.955C16.2108 14.4716 15.9746 14.9366 15.683 15.2429C15.5354 15.4016 15.3804 15.5492 15.2181 15.7079C14.9708 15.944 14.7162 16.1913 14.4837 16.4681C14.0851 16.8961 13.6128 17.0954 12.9965 17.0954C12.9375 17.0954 12.8747 17.0917 12.8157 17.088C11.668 17.0142 10.6052 16.5677 9.80441 16.1876C7.61975 15.1359 5.71187 13.6413 4.12504 11.7445Z" fill="#EEC48B"/>
<path d="M9.89265 3.29419C9.6454 3.2536 9.41291 3.41966 9.37232 3.66322C9.33173 3.91047 9.49779 4.14296 9.74135 4.18356C10.7562 4.357 11.6788 4.83674 12.4168 5.57111C13.1512 6.30547 13.6309 7.23174 13.8044 8.24657C13.8413 8.46799 14.0332 8.62298 14.2509 8.62298C14.2767 8.62298 14.3026 8.61929 14.3284 8.6156C14.5756 8.57501 14.7417 8.33883 14.6974 8.09527C14.4944 6.89592 13.9261 5.7999 13.0589 4.93269C12.1843 4.06178 11.092 3.49716 9.89265 3.29419Z" fill="#EEC48B"/>
<path d="M17.5353 8.46795C17.5611 8.46795 17.587 8.46426 17.6128 8.46057C17.8601 8.41998 18.0261 8.1838 17.9818 7.94024C17.646 5.95486 16.7087 4.15031 15.2732 2.71479C13.8339 1.27926 12.0294 0.341925 10.044 0.00610862C9.79677 -0.0344846 9.56428 0.131579 9.52369 0.375138C9.48309 0.622388 9.64916 0.854876 9.89272 0.89547C11.6899 1.20176 13.3284 2.05053 14.631 3.35321C15.9337 4.65588 16.7825 6.29437 17.0888 8.09154C17.1257 8.31296 17.3176 8.46795 17.5353 8.46795Z" fill="#EEC48B"/>
</g>
<defs>
<clipPath id="clip0">
<rect width="18" height="18" fill="white"/>
</clipPath>
</defs>
</svg>
